<?xml version="1.0" encoding="UTF-8" standalone="no"?>
<!-- Created with Inkscape (http://www.inkscape.org/) -->

<svg
   xmlns:dc="http://purl.org/dc/elements/1.1/"
   xmlns:cc="http://creativecommons.org/ns#"
   xmlns:rdf="http://www.w3.org/1999/02/22-rdf-syntax-ns#"
   xmlns:svg="http://www.w3.org/2000/svg"
   xmlns="http://www.w3.org/2000/svg"
   xmlns:sodipodi="http://sodipodi.sourceforge.net/DTD/sodipodi-0.dtd"
   xmlns:inkscape="http://www.inkscape.org/namespaces/inkscape"
   version="1.1"
   id="svg869"
   width="800"
   height="450"
   viewBox="0 0 800 450"
   sodipodi:docname="globe.svg"
   inkscape:version="0.92.3 (2405546, 2018-03-11)">
  <metadata
     id="metadata875">
    <rdf:RDF>
      <cc:Work
         rdf:about="">
        <dc:format>image/svg+xml</dc:format>
        <dc:type
           rdf:resource="http://purl.org/dc/dcmitype/StillImage" />
        <dc:title></dc:title>
      </cc:Work>
    </rdf:RDF>
  </metadata>
  <defs
     id="defs873" />
  <sodipodi:namedview
     pagecolor="#ffffff"
     bordercolor="#666666"
     borderopacity="1"
     objecttolerance="10"
     gridtolerance="10"
     guidetolerance="10"
     inkscape:pageopacity="0"
     inkscape:pageshadow="2"
     inkscape:window-width="1920"
     inkscape:window-height="1025"
     id="namedview871"
     showgrid="false"
     inkscape:zoom="0.9075818"
     inkscape:cx="552"
     inkscape:cy="282"
     inkscape:window-x="0"
     inkscape:window-y="27"
     inkscape:window-maximized="1"
     inkscape:current-layer="svg869" />
  <path
     style="fill:#000000;fill-opacity:1;stroke:#000000;stroke-width:1px;stroke-linecap:butt;stroke-linejoin:miter;stroke-opacity:1"
     d="m 212.5851,27.238917 -14.02344,1.5586 -8.57031,19.47656 -40.51367,1.55859 -6.23438,-5.45312 -45.187504,-2.33789 -44.410147,11.6875 -35.83789,16.36133 0.77929,7.791015 35.0586,-10.128905 8.57031,10.128905 -11.68555,12.46484 -3.89648,16.361328 -17.14063,21.03711 -1.55859,21.81445 7.79297,27.26953 4.67383,-15.58398 10.1289,21.03711 -4.67578,7.79101 31.16406,13.24414 19.478517,12.4668 7.791014,7.79102 18.69922,15.58203 -14.02343,21.03515 v 16.36133 l 24.15234,41.29297 8.57031,-1.55664 8.57032,20.25586 6.23242,52.98047 7.01172,23.37305 25.71093,24.15234 h 12.46485 l -13.24414,-34.28125 9.34961,-23.37305 13.24414,-1.55859 3.11718,-33.50195 23.37305,-10.90821 -1.55859,-36.61718 14.80273,-12.4668 -13.24414,-12.46485 -27.26953,-8.57031 -10.90625,-21.81445 -26.49024,-3.11719 -10.1289,-16.36133 -31.16406,-3.89453 -7.79102,13.24414 -21.03711,-17.14062 1.55859,-17.91992 h -9.349604 l 6.234374,-14.02344 -10.908201,2.33789 -11.6875,9.34765 -3.89453,-16.36132 12.46484,-18.69727 18.699221,0.7793 7.79101,-3.11719 9.34961,10.9082 h 4.67383 l -0.77929,-16.36132 23.375,-17.91993 3.89453,-5.45312 21.81445,-13.24609 22.5957,-4.67383 -1.55859,-16.361328 11.68555,8.570308 14.02539,-0.7793 -2.33789,-15.582028 -2.3379,-12.466794 -10.1289,-0.779297 -7.01172,-11.685544 -17.91797,19.476555 -14.80469,10.90821 0.7793,-11.6875 -12.46484,-6.232424 7.01172,-11.685551 37.39648,-7.01171 6.23438,-12.4668 z m -74.79492,73.236333 11.6875,6.23242 v 10.12891 l -14.02539,-13.24415 z"
     id="path881"
     inkscape:connector-curvature="0" />
  <path
     style="fill:#000000;fill-opacity:1;stroke:#000000;stroke-width:1px;stroke-linecap:butt;stroke-linejoin:miter;stroke-opacity:1"
     d="m 337.24261,20.226687 -28.8271,25.71066 -4.67467,7.01199 h -21.03599 l -21.8151,12.46578 -9.34933,-2.33734 12.46577,-20.25687 3.89556,-13.24489 -24.93155,7.012 -10.12844,24.15243 -5.45378,-1.55822 -7.01199,3.11645 -10.90755,-3.89556 9.34933,-10.12844 -0.77911,-10.90755 17.91954,-1.55822 29.60621,-18.69866 67.78264,4.67466 z"
     id="path883"
     inkscape:connector-curvature="0" />
  <path
     style="fill:#000000;fill-opacity:1;stroke:#000000;stroke-width:1px;stroke-linecap:butt;stroke-linejoin:miter;stroke-opacity:1"
     d="m 493.06557,29.576817 -23.375,1.55664 -13.24414,14.80468 -30.38477,6.23242 -13.24609,13.24415 7.01367,-17.91993 -24.93164,-3.89453 -6.23438,-2.33789 -17.14062,13.2461 -3.89453,10.12695 -6.23242,4.67578 13.24414,1.558594 8.57031,7.791011 3.11719,-8.570305 1.55664,-14.80469 7.01367,2.33789 6.23242,13.246094 -10.9082,14.023441 -15.58203,-4.67579 -5.45313,-3.115229 -3.11718,8.570309 -13.24415,7.01172 -3.11718,-0.7793 3.89648,-6.23242 -10.12891,-3.11718 -2.33789,-10.908208 -5.45312,3.117188 v 13.24414 l -5.45313,-6.23242 -2.33789,10.1289 11.68555,-2.33789 9.34961,7.01172 -8.57031,4.675778 6.23437,10.12891 -9.34961,0.77734 -10.1289,-1.55664 -3.11719,21.81446 h 14.80273 l 11.6875,-4.67383 5.45313,-10.12891 17.14062,-4.67578 14.02539,9.34961 -0.77929,5.45508 7.79101,-4.67578 -10.1289,-12.46485 7.79101,0.7793 14.02344,17.13867 v 5.45508 l 5.45508,-1.55859 V 121.5104 l 12.46484,6.23438 v -19.47852 l 15.58203,-2.33789 19.47852,13.2461 -21.03711,2.33593 -14.02344,6.23438 -0.77929,6.23242 16.36132,3.11523 h 9.34961 l -10.1289,14.80469 -31.16407,-4.67578 -8.57031,4.67578 -28.04687,-11.6875 v -11.6875 l -45.18946,17.91992 -7.01172,13.2461 -20.25781,22.59375 4.67578,19.47851 -2.33789,17.13868 25.71094,24.93164 h 16.36133 l 13.24414,-8.57032 21.81641,10.12891 -3.89649,15.58203 8.57031,10.9082 3.89649,25.71094 -6.23438,20.25586 14.80469,22.5957 -2.33789,19.47657 21.03516,14.02343 38.17773,-35.83789 -1.55859,-10.1289 17.14062,-15.58203 2.33594,-43.63086 17.14062,-17.91797 14.80469,-27.26953 -4.67578,-6.23243 -25.71094,1.55665 -25.71094,-47.52539 -0.77929,-10.12891 8.57031,6.23437 13.24609,28.04688 10.90625,7.79101 -3.11523,10.12891 38.95508,-15.58203 5.45312,-14.80273 -12.46484,-7.79102 h -11.6875 l -13.24414,-14.80274 22.59375,6.23243 30.38672,3.11523 10.90625,15.58399 16.36133,6.23242 14.02343,38.17578 7.01367,1.55859 v 8.57032 l 10.90626,-3.89649 -10.12696,-33.50195 20.25586,-14.80274 14.80274,2.33789 v 15.58203 l 15.58203,0.7793 3.89648,6.23242 11.68555,7.79102 11.6875,12.4668 7.01172,-25.71094 -10.12891,-14.02344 0.7793,-9.34961 21.8164,-3.89648 7.01172,-26.49024 -17.91992,-10.90625 -1.55859,-13.24609 h -9.34961 l 10.9082,-5.45313 12.46484,14.02344 7.01368,7.79102 6.23242,-7.01172 -16.36133,-17.91992 10.12891,-8.57032 -9.34961,-18.697258 -31.16407,-11.6875 -3.11718,-12.464845 12.46484,1.558594 11.6875,-2.337894 8.57031,-1.55859 14.02344,15.582035 20.25781,7.01171 -4.67578,-9.34961 -14.80273,-10.906245 3.11718,-3.89648 1.5586,-3.11524 -34.28125,-10.9082 -37.39844,-12.4668 -3.11523,5.45508 -35.06055,-3.11719 h -24.93164 l -17.14063,5.45313 -12.46484,-14.80274 -28.82812,6.23438 z m -22.5957,76.351553 6.23437,1.5586 16.36133,22.59375 -3.89649,5.45507 -10.1289,-0.77929 V 123.069 l -8.57031,-6.23242 z"
     id="path885"
     inkscape:connector-curvature="0" />
  <path
     style="fill:#000000;fill-opacity:1;stroke:#000000;stroke-width:1px;stroke-linecap:butt;stroke-linejoin:miter;stroke-opacity:1"
     d="m 713.55312,105.92887 -7.79111,7.79111 7.012,16.36133 -8.57022,10.90755 v 10.90755 l 21.03599,-18.69866 z"
     id="path887"
     inkscape:connector-curvature="0" />
  <path
     style="fill:#000000;fill-opacity:1;stroke:#000000;stroke-width:1px;stroke-linecap:butt;stroke-linejoin:miter;stroke-opacity:1"
     d="m 694.85446,195.52662 3.89556,14.8031 6.23288,4.67467 0.77911,17.14043 13.24489,6.23289 -3.89556,-19.47777 z"
     id="path889"
     inkscape:connector-curvature="0" />
  <path
     style="fill:#000000;fill-opacity:1;stroke:#000000;stroke-width:1px;stroke-linecap:butt;stroke-linejoin:miter;stroke-opacity:1"
     d="m 641.09582,228.24927 17.14044,20.25688 -1.55823,10.90755 7.012,23.37333 22.59421,-0.77912 5.45378,10.12844 -34.28088,-2.33733 -21.03599,-39.73465 -10.90755,-4.67466 3.11645,-6.23289 12.46577,2.33733 z"
     id="path891"
     inkscape:connector-curvature="0" />
  <path
     style="fill:#000000;fill-opacity:1;stroke:#000000;stroke-width:1px;stroke-linecap:butt;stroke-linejoin:miter;stroke-opacity:1"
     d="m 728.35623,255.51815 17.91955,11.68666 16.36132,-2.33733 21.8151,21.8151 -10.90755,6.23289 -15.58221,-3.89556 -3.89556,-12.46577 -15.58221,-7.79111 z"
     id="path893"
     inkscape:connector-curvature="0" />
  <path
     style="fill:#000000;fill-opacity:1;stroke:#000000;stroke-width:1px;stroke-linecap:butt;stroke-linejoin:miter;stroke-opacity:1"
     d="m 687.84247,232.92393 -7.012,17.91955 -14.024,7.012 21.81511,16.36133 9.34933,-28.04799 z"
     id="path895"
     inkscape:connector-curvature="0" />
  <path
     style="fill:#000000;fill-opacity:1;stroke:#000000;stroke-width:1px;stroke-linecap:butt;stroke-linejoin:miter;stroke-opacity:1"
     d="m 746.27578,304.60213 -15.58222,-5.45378 -6.23289,8.57022 h -10.90755 l -19.47777,17.14044 -30.38532,12.46577 -3.89555,38.17643 21.8151,-1.55822 18.69866,-10.12844 21.03599,14.02399 -4.67466,15.58222 38.17642,-13.24489 27.26888,-33.50176 -10.90755,-25.71066 -11.68666,-21.03599 -3.11644,19.47777 z"
     id="path897"
     inkscape:connector-curvature="0" />
  <path
     style="fill:#000000;fill-opacity:1;stroke:#000000;stroke-width:1px;stroke-linecap:butt;stroke-linejoin:miter;stroke-opacity:1"
     d="m 489.16921,298.36924 -1.55822,9.34933 -12.46577,7.79111 -0.77911,14.02399 -3.89556,8.57022 7.79111,17.14044 7.79111,-10.90755 4.67466,-21.8151 5.45378,-12.46578 z"
     id="path899"
     inkscape:connector-curvature="0" />
  <path
     style="fill:#000000;fill-opacity:1;stroke:#000000;stroke-width:1px;stroke-linecap:butt;stroke-linejoin:miter;stroke-opacity:1"
     d="m 112.07959,182.28173 15.58221,8.57022 10.90755,-3.89555 4.67467,8.57022 10.90755,2.33733 18.69866,12.46577 -17.91955,-16.36133 -3.11644,-5.45377 -14.80311,-2.33733 z"
     id="path903"
     inkscape:connector-curvature="0" />
  <path
     style="fill:#000000;fill-opacity:1;stroke:#000000;stroke-width:1px;stroke-linecap:butt;stroke-linejoin:miter;stroke-opacity:1"
     d="m 709.65757,254.73904 c 0,0 12.46577,-4.67467 3.89555,6.23288 -8.57022,10.90755 -8.57022,10.90755 -8.57022,10.90755 l -0.77911,11.68667 -6.23288,-4.67467 z"
     id="path905"
     inkscape:connector-curvature="0" />
</svg>
